<?xml version="1.0" encoding="UTF-8" standalone="no"?>
<!-- Created with Inkscape (http://www.inkscape.org/) -->

<svg
   xmlns:dc="http://purl.org/dc/elements/1.1/"
   xmlns:cc="http://creativecommons.org/ns#"
   xmlns:rdf="http://www.w3.org/1999/02/22-rdf-syntax-ns#"
   xmlns:svg="http://www.w3.org/2000/svg"
   xmlns="http://www.w3.org/2000/svg"
   xmlns:xlink="http://www.w3.org/1999/xlink"
   xmlns:sodipodi="http://sodipodi.sourceforge.net/DTD/sodipodi-0.dtd"
   xmlns:inkscape="http://www.inkscape.org/namespaces/inkscape"
   width="300"
   height="300"
   viewBox="0 0 79.374998 79.375002"
   version="1.1"
   id="svg8"
   inkscape:version="0.92.2 2405546, 2018-03-11"
   sodipodi:docname="logo.svg">
  <defs
     id="defs2">
    <linearGradient
       inkscape:collect="always"
       id="linearGradient895">
      <stop
         style="stop-color:#303051;stop-opacity:1"
         offset="0"
         id="stop891" />
      <stop
         style="stop-color:#24243c;stop-opacity:1"
         offset="1"
         id="stop893" />
    </linearGradient>
    <linearGradient
       id="linearGradient4168"
       inkscape:collect="always">
      <stop
         id="stop4164"
         offset="0"
         style="stop-color:#565061;stop-opacity:1" />
      <stop
         id="stop4166"
         offset="1"
         style="stop-color:#4d465d;stop-opacity:1" />
    </linearGradient>
    <linearGradient
       inkscape:collect="always"
       id="linearGradient4125">
      <stop
         style="stop-color:#332e3d;stop-opacity:1;"
         offset="0"
         id="stop4121" />
      <stop
         style="stop-color:#4d465d;stop-opacity:1"
         offset="1"
         id="stop4123" />
    </linearGradient>
    <linearGradient
       inkscape:collect="always"
       id="linearGradient4098">
      <stop
         style="stop-color:#5e576d;stop-opacity:1"
         offset="0"
         id="stop4094" />
      <stop
         style="stop-color:#4f495c;stop-opacity:1"
         offset="1"
         id="stop4096" />
    </linearGradient>
    <linearGradient
       id="linearGradient861">
      <stop
         style="stop-color:#272742;stop-opacity:1;"
         offset="0"
         id="stop857" />
      <stop
         style="stop-color:#272742;stop-opacity:1;"
         offset="1"
         id="stop859" />
    </linearGradient>
    <radialGradient
       inkscape:collect="always"
       xlink:href="#linearGradient4098"
       id="radialGradient4102"
       cx="48.493183"
       cy="247.20049"
       fx="48.493183"
       fy="247.20049"
       r="14.303297"
       gradientTransform="matrix(1.9034238,-0.13257761,-0.06059928,1.1506523,-27.928345,-34.095099)"
       gradientUnits="userSpaceOnUse" />
    <radialGradient
       inkscape:collect="always"
       xlink:href="#linearGradient4125"
       id="radialGradient4127-7"
       cx="150"
       cy="210.06836"
       fx="150"
       fy="210.06836"
       r="75.988281"
       gradientTransform="matrix(1,0,0,0.23631315,0,160.42644)"
       gradientUnits="userSpaceOnUse" />
    <linearGradient
       inkscape:collect="always"
       xlink:href="#linearGradient4168"
       id="linearGradient4162"
       x1="40.321316"
       y1="277.07501"
       x2="40.321316"
       y2="266.26398"
       gradientUnits="userSpaceOnUse" />
    <linearGradient
       inkscape:collect="always"
       xlink:href="#linearGradient895"
       id="linearGradient897"
       x1="42.229641"
       y1="284.39413"
       x2="42.229641"
       y2="230.95061"
       gradientUnits="userSpaceOnUse" />
  </defs>
  <sodipodi:namedview
     id="base"
     pagecolor="#ffffff"
     bordercolor="#666666"
     borderopacity="1.0"
     inkscape:pageopacity="0"
     inkscape:pageshadow="2"
     inkscape:zoom="1.9505793"
     inkscape:cx="162.21848"
     inkscape:cy="129.45175"
     inkscape:document-units="mm"
     inkscape:current-layer="layer1"
     showgrid="false"
     units="px"
     inkscape:showpageshadow="false"
     showguides="true"
     inkscape:guide-bbox="true">
    <inkscape:grid
       type="xygrid"
       id="grid883"
       dotted="false" />
  </sodipodi:namedview>
  <metadata
     id="metadata5">
    <rdf:RDF>
      <cc:Work
         rdf:about="">
        <dc:format>image/svg+xml</dc:format>
        <dc:type
           rdf:resource="http://purl.org/dc/dcmitype/StillImage" />
        <dc:title />
      </cc:Work>
    </rdf:RDF>
  </metadata>
  <g
     inkscape:label="Capa 1"
     inkscape:groupmode="layer"
     id="layer1"
     transform="translate(0,-217.62498)">
    <path
       inkscape:transform-center-y="10.222256"
       d="m 74.883154,232.36854 c 2.655818,4.60001 -15.049635,26.06673 -17.705453,30.66674 -2.655818,4.60001 -12.393817,30.66675 -17.705453,30.66675 -5.311636,0 -15.049635,-26.06674 -17.705453,-30.66675 -2.655818,-4.60001 -20.3612711,-26.06673 -17.7054531,-30.66674 2.655818,-4.60001 30.0992701,0 35.4109061,0 5.311636,0 32.755088,-4.60001 35.410906,0 z"
       inkscape:randomized="0"
       inkscape:rounded="0.15"
       inkscape:flatsided="false"
       sodipodi:arg2="0.52359878"
       sodipodi:arg1="-0.52359878"
       sodipodi:r2="20.444496"
       sodipodi:r1="40.888992"
       sodipodi:cy="252.81303"
       sodipodi:cx="39.472248"
       sodipodi:sides="3"
       id="path901"
       style="color:#000000;clip-rule:nonzero;display:block;overflow:visible;visibility:visible;opacity:1;isolation:auto;mix-blend-mode:normal;color-interpolation:sRGB;color-interpolation-filters:linearRGB;solid-color:#000000;solid-opacity:1;vector-effect:none;fill:#040404;fill-opacity:0.24083773;fill-rule:nonzero;stroke:none;stroke-width:0.61199999;stroke-linecap:butt;stroke-linejoin:miter;stroke-miterlimit:4;stroke-dasharray:none;stroke-dashoffset:0;stroke-opacity:1;marker:none;marker-start:none;marker-mid:none;marker-end:none;paint-order:normal;color-rendering:auto;image-rendering:auto;shape-rendering:auto;text-rendering:auto;enable-background:accumulate"
       sodipodi:type="star" />
    <path
       sodipodi:type="star"
       style="color:#000000;clip-rule:nonzero;display:block;overflow:visible;visibility:visible;opacity:1;isolation:auto;mix-blend-mode:normal;color-interpolation:sRGB;color-interpolation-filters:linearRGB;solid-color:#000000;solid-opacity:1;vector-effect:none;fill:url(#linearGradient897);fill-opacity:1;fill-rule:nonzero;stroke:#85e675;stroke-width:0.61199999;stroke-linecap:butt;stroke-linejoin:miter;stroke-miterlimit:4;stroke-dasharray:none;stroke-dashoffset:0;stroke-opacity:1;marker:none;marker-start:none;marker-mid:none;marker-end:none;paint-order:normal;color-rendering:auto;image-rendering:auto;shape-rendering:auto;text-rendering:auto;enable-background:accumulate"
       id="path873"
       sodipodi:sides="3"
       sodipodi:cx="39.472248"
       sodipodi:cy="250.91405"
       sodipodi:r1="40.888992"
       sodipodi:r2="20.444496"
       sodipodi:arg1="-0.52359878"
       sodipodi:arg2="0.52359878"
       inkscape:flatsided="false"
       inkscape:rounded="0.15"
       inkscape:randomized="0"
       d="m 74.883154,230.46955 c 2.655818,4.60001 -15.049635,26.06673 -17.705453,30.66675 -2.655818,4.60001 -12.393817,30.66674 -17.705453,30.66674 -5.311636,0 -15.049635,-26.06673 -17.705453,-30.66674 -2.655818,-4.60002 -20.3612711,-26.06674 -17.7054531,-30.66675 2.655818,-4.60001 30.0992701,0 35.4109061,0 5.311636,0 32.755088,-4.60001 35.410906,0 z"
       inkscape:transform-center-y="10.222256" />
    <text
       xml:space="preserve"
       style="font-style:normal;font-variant:normal;font-weight:normal;font-stretch:normal;font-size:17.066679px;line-height:1000%;font-family:DINCond-Medium;-inkscape-font-specification:DINCond-Medium;letter-spacing:0px;word-spacing:0px;display:none;opacity:1;vector-effect:none;fill:url(#linearGradient4162);fill-opacity:1;stroke:none;stroke-width:3.76867914px;stroke-linecap:butt;stroke-linejoin:miter;stroke-miterlimit:4;stroke-dasharray:none;stroke-dashoffset:0;stroke-opacity:1"
       x="21.548553"
       y="277.90109"
       id="text4133"
       inkscape:label="PLANE-texto-original"><tspan
         sodipodi:role="line"
         id="tspan4131"
         x="21.548553"
         y="277.90109"
         style="font-style:normal;font-variant:normal;font-weight:normal;font-stretch:normal;font-family:DINCond-Medium;-inkscape-font-specification:DINCond-Medium;vector-effect:none;fill:url(#linearGradient4162);fill-opacity:1;stroke:none;stroke-width:3.76867914px;stroke-linecap:butt;stroke-linejoin:miter;stroke-miterlimit:4;stroke-dasharray:none;stroke-dashoffset:0;stroke-opacity:1">PLANE</tspan></text>
    <g
       aria-label="JOKER"
       style="font-style:normal;font-variant:normal;font-weight:normal;font-stretch:normal;font-size:12.13383675px;line-height:1000%;font-family:Iosevka;-inkscape-font-specification:Iosevka;letter-spacing:0px;word-spacing:0px;fill:#000000;fill-opacity:0.39267016;stroke:none;stroke-width:0.7583648px;stroke-linecap:butt;stroke-linejoin:miter;stroke-opacity:1"
       id="text905">
      <path
         d="m 27.100817,252.83354 q -0.0728,0 -0.145606,0 -0.606692,-0.0364 -1.055644,-0.29122 -0.461085,-0.26694 -0.752298,-0.75229 -0.242676,-0.43682 -0.303345,-0.93431 l 0.946439,-0.18201 q 0.04854,0.37615 0.218409,0.6795 0.169874,0.29121 0.448952,0.44895 0.279078,0.15774 0.643093,0.15774 0.376149,0 0.643094,-0.15774 0.279078,-0.15774 0.448952,-0.46109 0.230542,-0.38828 0.230542,-0.9707 v -5.67864 h -1.638068 v -0.87363 h 2.608775 v 6.55227 q 0,0.83723 -0.339747,1.41966 -0.279078,0.48535 -0.752298,0.75229 -0.497487,0.29122 -1.20125,0.29122 z"
         style="font-style:normal;font-variant:normal;font-weight:normal;font-stretch:normal;font-family:Iosevka;-inkscape-font-specification:Iosevka;fill:#000000;fill-opacity:0.39267016;stroke:none;stroke-width:0.7583648px"
         id="path847"
         inkscape:connector-curvature="0" />
      <path
         d="m 33.458948,252.83354 q -0.752298,0 -1.298321,-0.31548 -0.485353,-0.27908 -0.776565,-0.77657 -0.327614,-0.57029 -0.327614,-1.37112 v -4.18618 q 0,-0.80083 0.327614,-1.37112 0.291212,-0.49749 0.776565,-0.77657 0.546023,-0.31548 1.298321,-0.31548 0.752298,0 1.29832,0.31548 0.485354,0.27908 0.776566,0.77657 0.327613,0.57029 0.327613,1.37112 v 4.18618 q 0,0.80083 -0.327613,1.37112 -0.291212,0.49749 -0.776566,0.77657 -0.546022,0.31548 -1.29832,0.31548 z m 0,-0.87364 q 0.424684,0 0.740164,-0.18201 0.291212,-0.16987 0.473219,-0.47322 0.218409,-0.38828 0.218409,-0.9343 v -4.18618 q 0,-0.54602 -0.218409,-0.9343 -0.182007,-0.30335 -0.473219,-0.47322 -0.31548,-0.18201 -0.740164,-0.18201 -0.424685,0 -0.740164,0.18201 -0.291212,0.16987 -0.47322,0.47322 -0.218409,0.38828 -0.218409,0.9343 v 4.18618 q 0,0.54602 0.218409,0.9343 0.182008,0.30335 0.47322,0.47322 0.315479,0.18201 0.740164,0.18201 z"
         style="font-style:normal;font-variant:normal;font-weight:normal;font-stretch:normal;font-family:Iosevka;-inkscape-font-specification:Iosevka;fill:#000000;fill-opacity:0.39267016;stroke:none;stroke-width:0.7583648px"
         id="path849"
         inkscape:connector-curvature="0" />
      <path
         d="m 37.220437,252.73647 v -8.91837 h 0.970707 v 4.1255 q 1.383257,-1.52886 2.135555,-2.81505 0.485354,-0.84937 0.485354,-1.31045 h 1.019242 q 0,0.54602 -0.582424,1.55313 -0.497487,0.87363 -1.249785,1.83221 1.92928,4.1255 1.92928,5.53303 h -0.970707 q 0,-1.22552 -1.613801,-4.72007 -0.533888,0.61883 -1.152714,1.27406 v 3.44601 z"
         style="font-style:normal;font-variant:normal;font-weight:normal;font-stretch:normal;font-family:Iosevka;-inkscape-font-specification:Iosevka;fill:#000000;fill-opacity:0.39267016;stroke:none;stroke-width:0.7583648px"
         id="path851"
         inkscape:connector-curvature="0" />
      <path
         d="m 43.651371,252.73647 v -8.91837 h 4.246843 v 0.87363 h -3.276136 v 2.79078 h 2.584508 v 0.87364 h -2.584508 v 3.50668 h 3.276136 v 0.87364 z"
         style="font-style:normal;font-variant:normal;font-weight:normal;font-stretch:normal;font-family:Iosevka;-inkscape-font-specification:Iosevka;fill:#000000;fill-opacity:0.39267016;stroke:none;stroke-width:0.7583648px"
         id="path853"
         inkscape:connector-curvature="0" />
      <path
         d="m 49.354274,252.73647 v -8.91837 h 2.317563 q 0.72803,0 1.274052,0.30334 0.47322,0.29121 0.776566,0.7887 0.339747,0.60669 0.339747,1.45606 0,0.84937 -0.339747,1.44393 -0.303346,0.50962 -0.776566,0.7887 -0.218409,0.13347 -0.473219,0.20627 0.327613,0.47322 0.606692,0.94644 0.98284,1.72301 0.98284,2.98493 h -0.970706 q 0,-1.07992 -0.837235,-2.54811 -0.376149,-0.63096 -0.849369,-1.27405 h -1.079911 v 3.82216 z m 2.317563,-4.6958 q 0.41255,0 0.703762,-0.16987 0.291212,-0.16988 0.485354,-0.49749 0.230543,-0.41255 0.230543,-1.00711 0,-0.59456 -0.230543,-1.00711 -0.194142,-0.32761 -0.485354,-0.49748 -0.291212,-0.16988 -0.703762,-0.16988 h -1.346856 v 3.34894 z"
         style="font-style:normal;font-variant:normal;font-weight:normal;font-stretch:normal;font-family:Iosevka;-inkscape-font-specification:Iosevka;fill:#000000;fill-opacity:0.39267016;stroke:none;stroke-width:0.7583648px"
         id="path855"
         inkscape:connector-curvature="0" />
    </g>
    <g
       aria-label="JOKER"
       style="font-style:normal;font-variant:normal;font-weight:normal;font-stretch:normal;font-size:12.13383675px;line-height:1000%;font-family:Iosevka;-inkscape-font-specification:Iosevka;letter-spacing:0px;word-spacing:0px;fill:#fcfaff;fill-opacity:0.97905728;stroke:none;stroke-width:0.7583648px;stroke-linecap:butt;stroke-linejoin:miter;stroke-opacity:1"
       id="text847">
      <path
         d="m 27.100817,252.03977 q -0.0728,0 -0.145606,0 -0.606692,-0.0364 -1.055644,-0.29121 -0.461085,-0.26694 -0.752298,-0.7523 -0.242676,-0.43681 -0.303345,-0.9343 l 0.946439,-0.18201 q 0.04854,0.37615 0.218409,0.6795 0.169874,0.29121 0.448952,0.44895 0.279078,0.15774 0.643093,0.15774 0.376149,0 0.643094,-0.15774 0.279078,-0.15774 0.448952,-0.46109 0.230542,-0.38828 0.230542,-0.9707 v -5.67864 h -1.638068 v -0.87364 h 2.608775 v 6.55228 q 0,0.83723 -0.339747,1.41965 -0.279078,0.48536 -0.752298,0.7523 -0.497487,0.29121 -1.20125,0.29121 z"
         style="font-style:normal;font-variant:normal;font-weight:normal;font-stretch:normal;font-family:Iosevka;-inkscape-font-specification:Iosevka;fill:#fcfaff;fill-opacity:0.97905728;stroke:none;stroke-width:0.7583648px"
         id="path842"
         inkscape:connector-curvature="0" />
      <path
         d="m 33.458948,252.03977 q -0.752298,0 -1.298321,-0.31548 -0.485353,-0.27907 -0.776565,-0.77656 -0.327614,-0.57029 -0.327614,-1.37112 v -4.18618 q 0,-0.80083 0.327614,-1.37112 0.291212,-0.49749 0.776565,-0.77657 0.546023,-0.31548 1.298321,-0.31548 0.752298,0 1.29832,0.31548 0.485354,0.27908 0.776566,0.77657 0.327613,0.57029 0.327613,1.37112 v 4.18618 q 0,0.80083 -0.327613,1.37112 -0.291212,0.49749 -0.776566,0.77656 -0.546022,0.31548 -1.29832,0.31548 z m 0,-0.87363 q 0.424684,0 0.740164,-0.18201 0.291212,-0.16987 0.473219,-0.47322 0.218409,-0.38828 0.218409,-0.9343 v -4.18618 q 0,-0.54602 -0.218409,-0.9343 -0.182007,-0.30335 -0.473219,-0.47322 -0.31548,-0.18201 -0.740164,-0.18201 -0.424685,0 -0.740164,0.18201 -0.291212,0.16987 -0.47322,0.47322 -0.218409,0.38828 -0.218409,0.9343 v 4.18618 q 0,0.54602 0.218409,0.9343 0.182008,0.30335 0.47322,0.47322 0.315479,0.18201 0.740164,0.18201 z"
         style="font-style:normal;font-variant:normal;font-weight:normal;font-stretch:normal;font-family:Iosevka;-inkscape-font-specification:Iosevka;fill:#fcfaff;fill-opacity:0.97905728;stroke:none;stroke-width:0.7583648px"
         id="path844"
         inkscape:connector-curvature="0" />
      <path
         d="m 37.220437,251.9427 v -8.91837 h 0.970707 v 4.12551 q 1.383257,-1.52887 2.135555,-2.81505 0.485354,-0.84937 0.485354,-1.31046 h 1.019242 q 0,0.54603 -0.582424,1.55313 -0.497487,0.87364 -1.249785,1.83221 1.92928,4.12551 1.92928,5.53303 h -0.970707 q 0,-1.22551 -1.613801,-4.72006 -0.533888,0.61883 -1.152714,1.27405 v 3.44601 z"
         style="font-style:normal;font-variant:normal;font-weight:normal;font-stretch:normal;font-family:Iosevka;-inkscape-font-specification:Iosevka;fill:#fcfaff;fill-opacity:0.97905728;stroke:none;stroke-width:0.7583648px"
         id="path846"
         inkscape:connector-curvature="0" />
      <path
         d="m 43.651371,251.9427 v -8.91837 h 4.246843 v 0.87364 h -3.276136 v 2.79078 h 2.584508 v 0.87364 h -2.584508 v 3.50668 h 3.276136 v 0.87363 z"
         style="font-style:normal;font-variant:normal;font-weight:normal;font-stretch:normal;font-family:Iosevka;-inkscape-font-specification:Iosevka;fill:#fcfaff;fill-opacity:0.97905728;stroke:none;stroke-width:0.7583648px"
         id="path848"
         inkscape:connector-curvature="0" />
      <path
         d="m 49.354274,251.9427 v -8.91837 h 2.317563 q 0.72803,0 1.274052,0.30335 0.47322,0.29121 0.776566,0.7887 0.339747,0.60669 0.339747,1.45606 0,0.84937 -0.339747,1.44393 -0.303346,0.50962 -0.776566,0.78869 -0.218409,0.13348 -0.473219,0.20628 0.327613,0.47322 0.606692,0.94644 0.98284,1.723 0.98284,2.98492 h -0.970706 q 0,-1.07991 -0.837235,-2.5481 -0.376149,-0.63096 -0.849369,-1.27406 h -1.079911 v 3.82216 z m 2.317563,-4.69579 q 0.41255,0 0.703762,-0.16988 0.291212,-0.16987 0.485354,-0.49748 0.230543,-0.41255 0.230543,-1.00711 0,-0.59456 -0.230543,-1.00711 -0.194142,-0.32761 -0.485354,-0.49749 -0.291212,-0.16987 -0.703762,-0.16987 h -1.346856 v 3.34894 z"
         style="font-style:normal;font-variant:normal;font-weight:normal;font-stretch:normal;font-family:Iosevka;-inkscape-font-specification:Iosevka;fill:#fcfaff;fill-opacity:0.97905728;stroke:none;stroke-width:0.7583648px"
         id="path850"
         inkscape:connector-curvature="0" />
    </g>
    <path
       sodipodi:nodetypes="ccccc"
       inkscape:connector-curvature="0"
       id="path899"
       d="m 20.760154,260.77158 18.811237,10.86067 18.811238,-10.86067 -18.811238,18.02535 z"
       style="fill:#000000;fill-opacity:0.39267016;fill-rule:evenodd;stroke:none;stroke-width:0.30658716px;stroke-linecap:butt;stroke-linejoin:miter;stroke-opacity:1" />
    <path
       style="fill:#80fc59;fill-opacity:0.97905728;fill-rule:evenodd;stroke:none;stroke-width:0.30658716px;stroke-linecap:butt;stroke-linejoin:miter;stroke-opacity:1"
       d="M 20.760154,259.1841 39.571391,270.04477 58.382629,259.1841 39.571391,277.20945 Z"
       id="path889"
       inkscape:connector-curvature="0"
       sodipodi:nodetypes="ccccc" />
  </g>
</svg>
